<?xml version="1.0" encoding="utf-8"?>
<!-- Svg Vector Icons : http://www.onlinewebfonts.com/icon -->
<!DOCTYPE svg PUBLIC "-//W3C//DTD SVG 1.1//EN" "http://www.w3.org/Graphics/SVG/1.1/DTD/svg11.dtd">
<svg version="1.1" xmlns="http://www.w3.org/2000/svg" xmlns:xlink="http://www.w3.org/1999/xlink" x="0px" y="0px" viewBox="0 0 256 256" enable-background="new 0 0 256 256" xml:space="preserve">
<metadata> Svg Vector Icons : http://www.onlinewebfonts.com/icon </metadata>
<g><g><g><path fill="currentColor" d="M115.5,42.7C106.3,43.4,97.4,48,91.1,55c-2.4,2.6-65.4,85.7-73.4,96.6c-3,4.1-5.7,9.6-6.8,14.1c-1.2,4.4-1.2,14,0,18.2c4,14.6,13.9,24.6,28.5,28.5c4.1,1.1,13.8,1.1,18.2,0c7.3-1.9,15.6-7,20.1-12.5l2-2.5l0.6,1.7c0.8,2.5,2.3,3.5,7.3,5.1c13.6,4.3,31.2,7.5,49.3,8.9c8.8,0.6,30.7,0.6,40,0c37.3-2.6,61.6-10.3,67.7-21.3l1.4-2.5V165v-24.3l-1.4-2.5c-7.3-13.3-42.1-21.8-89-21.9c-9.7,0-14.5-0.2-14.2-0.5c13.3-16.7,16.3-23.3,16.3-34.9c0-8.5-1.7-14.2-6.5-21.5c-5.1-7.9-13.4-13.6-22.6-15.8C124.1,42.5,120.6,42.2,115.5,42.7z M125.6,55.1c4.1,0.8,8.7,3.5,12.4,7.1c8.6,8.7,10.4,21.9,4.2,32.1c-1.1,1.8-33.5,45.1-35.2,47c-0.3,0.4-42.2-31.6-42-32.1c0.5-1.6,34.7-46,37-48.1C108.3,55.4,116.2,53.4,125.6,55.1z M82,130.2c10.9,8.3,20.2,15.3,20.6,15.7c0.5,0.5-2.3,4.4-16.4,23.1c-9.4,12.4-18.2,23.7-19.7,25.2c-3.2,3.1-7,5.2-11.7,6.4c-4.5,1.2-8.3,1.2-12.8,0C25.5,196.4,17,177.8,24.7,163c2.3-4.3,35.8-48.4,36.6-48.1C61.7,115,71,121.9,82,130.2z M137.2,123.1c0,1.4,1.5,3.9,2.8,4.5c0.6,0.3,6.4,0.6,16.5,0.6c16.4,0.2,25.8,0.6,25.2,1.2c-0.2,0.2-14.7,6.5-32.2,14l-31.8,13.7l-2.6-0.4c-1.5-0.2-3.1-0.3-3.6-0.2c-0.7,0.2,1.9-3.6,8.6-12.4c5.3-7,11.1-14.8,13.1-17.4c1.9-2.6,3.6-4.7,3.9-4.8C137.1,122.1,137.2,122.5,137.2,123.1z M201.6,131.8c15.2,2.6,29.2,7.6,31.9,11.2l0.9,1.2l-1.1,1.1c-0.6,0.6-2.6,2-4.6,3c-13.7,7.1-41.8,11.6-72.1,11.6c-9.5,0-25.4-0.8-26-1.3c-0.5-0.5,62.8-27.7,64.4-27.7C195.7,130.8,198.7,131.2,201.6,131.8z M234.2,172.6v13.7l-1.2,1.2c-5.2,4.8-23.6,10.1-43.1,12.3c-15,1.8-38.8,2.3-52.4,1.2c-17.4-1.4-35.7-4.7-46.8-8.5c-1.9-0.6-4-1.2-4.8-1.2c-0.7,0-1.3-0.1-1.3-0.2c0-0.3,20.2-27,21.3-28.2c0.9-0.9,0.9-0.9,0.9,0.2c0,1.5,1.6,3.9,3,4.6c1.5,0.6,10.6,2,20.7,3.1c9.3,1,39,1.1,49.2,0.2c23.6-2.1,42.9-6.1,52.2-11c1.2-0.6,2.1-1.1,2.2-1.1C234.2,159,234.2,165.1,234.2,172.6z"/></g></g></g>
</svg>