<?xml version="1.0" encoding="iso-8859-1"?>
<!-- Uploaded to: SVG Repo, www.svgrepo.com, Generator: SVG Repo Mixer Tools -->
<svg fill="currentColor" height="1em" width="1em" version="1.1" id="Capa_1" xmlns="http://www.w3.org/2000/svg" xmlns:xlink="http://www.w3.org/1999/xlink" 
	 viewBox="0 0 512 512" xml:space="preserve">
<g>
	<g>
		<path d="M503.564,316.172h-57.567V62.852c0-10.059-8.184-18.243-18.243-18.243h-54.419v-23.5C373.335,9.469,363.866,0,352.225,0
			h-9.145c-11.64,0-21.109,9.469-21.109,21.109v23.499h-35.848c-4.356,0-7.887,3.531-7.887,7.887s3.531,7.887,7.887,7.887h35.848
			v25.014c0,11.639,9.469,21.108,21.109,21.108h9.145c11.64,0,21.109-9.469,21.109-21.108V60.381h54.42
			c1.362,0,2.47,1.108,2.47,2.47v74.692H176.651c-4.356,0-7.887,3.531-7.887,7.887c0,4.356,3.531,7.887,7.887,7.887h253.574v162.855
			H401.78c-4.356,0-7.887,3.531-7.887,7.887c0,4.356,3.531,7.887,7.887,7.887h93.378c-3.869,29.086-28.837,51.598-58.964,51.598
			H205.476c15.808-12.26,26.629-30.659,28.818-51.598h125.422c4.356,0,7.887-3.531,7.887-7.887c0-4.356-3.531-7.887-7.887-7.887
			h-22.32c-1.803-15.306-10.705-28.47-23.325-36.086c14.174-8.553,23.674-24.102,23.674-41.829v-25.39
			c0-26.92-21.901-48.822-48.822-48.822c-26.921,0-48.822,21.902-48.822,48.822v25.39c0,17.727,9.5,33.275,23.674,41.829
			c-12.62,7.615-21.521,20.779-23.325,36.086h-13.634c-4.356,0-7.887,3.531-7.887,7.887c0,14.305-5.078,27.446-13.524,37.718
			V177.276c0-3.127-1.848-5.959-4.711-7.219c-2.861-1.258-6.199-0.708-8.505,1.405l-41.737,38.26
			c-3.211,2.943-3.428,7.932-0.485,11.143s7.932,3.427,11.143,0.485l28.522-26.145v180.079c-8.856,5.239-19.173,8.259-30.187,8.259
			c-32.799,0-59.484-26.684-59.484-59.484V153.317h22.871c4.356,0,7.887-3.531,7.887-7.887c0-4.356-3.531-7.887-7.887-7.887h-22.87
			V62.852c0-1.362,1.108-2.47,2.47-2.47H124.9h33.627v25.014c0,11.639,9.469,21.108,21.109,21.108h9.145
			c11.64,0,21.109-9.469,21.109-21.108V60.381h34.172c4.356,0,7.887-3.531,7.887-7.887c0-4.356-3.531-7.887-7.887-7.887H209.89
			V21.109C209.89,9.469,200.419,0,188.781,0h-9.145c-11.64,0-21.109,9.469-21.109,21.109v23.499H124.9h-22.468H82.773H60.918H18.791
			c-10.059,0-18.243,8.184-18.243,18.243v430.906C0.549,503.816,8.732,512,18.791,512h42.126h31.77h9.744h32.383h292.941
			c10.059,0,18.243-8.184,18.243-18.243v-95.1c36.878-4.823,65.453-36.426,65.453-74.6
			C511.452,319.703,507.921,316.172,503.564,316.172z M357.561,85.395c0,2.892-2.443,5.335-5.336,5.335h-9.145
			c-2.892,0-5.336-2.443-5.336-5.335v-32.89c0-0.003,0-0.006,0-0.01c0-0.004,0-0.006,0-0.011V21.109
			c0-2.892,2.444-5.336,5.336-5.336h9.145c2.892,0,5.336,2.444,5.336,5.336V85.395z M255.876,238.258v-25.39
			c0-18.222,14.826-33.048,33.048-33.048c18.222,0,33.048,14.826,33.048,33.048v25.39c0,18.222-14.826,33.048-33.048,33.048
			C270.702,271.306,255.876,256.48,255.876,238.258z M288.924,288.867c16.263,0,29.811,11.812,32.538,27.305h-65.077
			C259.113,300.679,272.66,288.867,288.924,288.867z M174.301,21.109c0-2.892,2.444-5.336,5.336-5.336h9.145
			c2.892,0,5.336,2.444,5.336,5.336v64.287c0,2.892-2.443,5.335-5.336,5.335h-9.145c-2.892,0-5.336-2.443-5.336-5.335V21.109z
			 M18.791,496.227c-1.362,0-2.469-1.108-2.469-2.47v-340.44h26.353v340.44c0,0.839,0.077,1.659,0.187,2.47H18.791z M42.676,62.852
			v74.692H16.322V62.852c0-1.362,1.107-2.47,2.469-2.47h24.071C42.752,61.191,42.676,62.011,42.676,62.852z M60.918,496.227
			c-1.362,0-2.469-1.108-2.469-2.47v-340.44h25.739v340.44c0,0.839,0.077,1.659,0.187,2.47H60.918z M84.189,62.852v74.692H58.45
			V62.852c0-1.362,1.108-2.47,2.47-2.47h21.854h1.603C84.267,61.191,84.189,62.011,84.189,62.852z M430.225,493.758
			c0,1.361-1.108,2.469-2.47,2.469H134.814h-32.383c-1.362,0-2.47-1.108-2.47-2.47V370.08c13.556,17.481,34.62,28.844,58.318,29.208
			c0.195,0.015,0.388,0.029,0.587,0.029h271.359V493.758z"/>
	</g>
</g>
</svg>