<svg enable-background="new 0 0 128 128" height="128" viewBox="0 0 128 128" width="128" xmlns="http://www.w3.org/2000/svg"><g fill="#282d33"><path d="m82.892 128c-.001 0-.001 0-.002 0-18.188 0-38.422-10.423-55.517-28.594-18.126-18.282-27.719-39.49-26.282-58.148l.047-.617.388-.482c1.394-1.734 2.678-3.196 3.926-4.468 2.87-2.905 6.057-5.488 9.478-7.683l1.665-1.069 1.087 1.654c5.134 7.815 10.879 15.637 17.075 23.246l1.016 1.247-1 1.26c-.176.222-.424.506-.777.737l-7.35 4.965c-.502.332-.847.915-.99 1.655-.238 1.233.115 2.681.942 3.872 2.24 3.254 11.207 13.347 16.848 19.413 5.938 5.692 15.828 14.757 19.03 17.042.919.654 1.986 1.016 3.004 1.016 1.051 0 1.93-.391 2.353-1.049l1.378-2.109c1.176-1.803 2.351-3.602 3.531-5.398.248-.359.506-.59.707-.756l1.284-1.064 1.277 1.072c7.481 6.285 15.18 12.117 22.88 17.337l1.592 1.078-1.016 1.633c-2.159 3.473-4.703 6.707-7.561 9.615-1.253 1.276-2.691 2.587-4.395 4.005l-.488.406-.634.051c-1.141.088-2.318.133-3.496.133zm-77.856-85.82c-1.088 17.353 8.073 37.159 25.214 54.447 16.378 17.409 35.552 27.373 52.64 27.373h.002c.857 0 1.713-.025 2.551-.078 1.386-1.175 2.57-2.265 3.608-3.321 2.207-2.246 4.212-4.701 5.978-7.318-6.704-4.617-13.394-9.683-19.93-15.095-.841 1.285-1.689 2.584-2.538 3.885l-1.373 2.1c-1.154 1.795-3.291 2.874-5.707 2.874-1.845 0-3.737-.626-5.329-1.761-3.517-2.51-13.725-11.896-19.517-17.452l-.08-.08c-5.504-5.918-14.792-16.337-17.248-19.903-1.445-2.082-2.023-4.6-1.58-6.903.348-1.807 1.305-3.307 2.695-4.225l5.911-3.993c-5.339-6.652-10.333-13.451-14.881-20.26-2.556 1.784-4.955 3.805-7.149 6.026-1.034 1.054-2.108 2.265-3.267 3.684z"/><path d="m71.626 77.054h-25.7l-.135-1.855c-.019-.256-.395-6.372 4.912-14.286 2.251-3.358 6.23-6.173 10.079-8.895 4.424-3.131 9-6.367 9-9.299v-1.549c0-5.317-4.241-9.644-9.456-9.644-5.218 0-9.463 4.327-9.463 9.644h-4c0-7.523 6.04-13.644 13.463-13.644 7.419 0 13.457 6.121 13.457 13.644v1.549c0 5.002-5.193 8.676-10.69 12.564-3.553 2.513-7.226 5.112-9.066 7.857-2.855 4.256-3.796 7.852-4.103 9.914h21.703v4z"/><path d="m92.551 27.976h4v49.664h-4z"/><path d="m102.205 65.133h-28.485l-1.709-3.042 20.494-33.606 3.416 2.083-18.639 30.564h24.923z"/><path d="m27.696 20.608-2.856-2.802c.477-.485.962-.96 1.45-1.426l2.762 2.894c-.457.436-.91.88-1.356 1.334z"/><path d="m112.298 100.719-3.031-2.611c.691-.801 1.369-1.635 2.016-2.479l3.174 2.436c-.694.902-1.42 1.794-2.159 2.654zm4.589-6.057-3.334-2.211c.718-1.082 1.406-2.201 2.046-3.329l3.479 1.976c-.686 1.207-1.424 2.406-2.191 3.564zm4.13-7.272-3.605-1.732c.559-1.162 1.086-2.365 1.568-3.578l3.717 1.479c-.517 1.297-1.082 2.587-1.68 3.831zm3.092-7.77-3.81-1.221c.396-1.236.755-2.502 1.066-3.762l3.884.959c-.332 1.348-.716 2.702-1.14 4.024zm2.004-8.114-3.94-.695c.225-1.271.408-2.574.548-3.873l3.978.426c-.149 1.388-.345 2.781-.586 4.142zm.89-8.315-3.997-.154c.029-.757.044-1.515.044-2.273-.001-.545-.009-1.094-.023-1.643l3.999-.11c.017.583.024 1.167.025 1.75 0 .812-.017 1.622-.048 2.43zm-4.217-7.972c-.127-1.303-.297-2.609-.507-3.881l3.948-.651c.224 1.359.406 2.754.54 4.147zm-1.272-7.717c-.3-1.27-.646-2.54-1.026-3.776l3.823-1.179c.408 1.322.776 2.68 1.097 4.037zm-2.308-7.473c-.466-1.208-.98-2.419-1.53-3.598l3.625-1.691c.589 1.262 1.14 2.558 1.638 3.853zm-3.305-7.082c-.628-1.135-1.305-2.264-2.012-3.354l3.357-2.175c.756 1.167 1.48 2.376 2.154 3.591zm-4.251-6.561c-.781-1.041-1.606-2.066-2.454-3.046l3.025-2.616c.907 1.049 1.792 2.146 2.628 3.26zm-5.113-5.917c-.919-.927-1.877-1.829-2.847-2.681l2.641-3.005c1.039.912 2.063 1.877 3.047 2.869zm-74.609-3.747-2.553-3.08c1.075-.891 2.191-1.751 3.317-2.559l2.332 3.251c-1.052.753-2.093 1.556-3.096 2.388zm68.741-1.411c-1.031-.787-2.104-1.546-3.186-2.257l2.197-3.343c1.16.763 2.309 1.577 3.414 2.419zm-62.392-3.143-2.097-3.406c1.19-.733 2.417-1.429 3.645-2.069l1.849 3.547c-1.144.597-2.287 1.246-3.397 1.928zm55.869-1.142c-1.134-.635-2.301-1.236-3.47-1.786l1.703-3.62c1.254.59 2.506 1.235 3.722 1.916zm-48.945-2.469-1.594-3.669c1.28-.556 2.593-1.071 3.901-1.532l1.328 3.773c-1.218.428-2.441.909-3.635 1.428zm41.886-.853c-1.208-.467-2.449-.897-3.688-1.278l1.174-3.823c1.33.408 2.661.869 3.958 1.371zm-34.523-1.743-1.059-3.857c1.335-.367 2.707-.691 4.076-.965l.784 3.923c-1.276.254-2.555.557-3.801.899zm27.065-.548c-1.259-.291-2.549-.542-3.833-.744l.623-3.951c1.378.217 2.761.486 4.11.798zm-19.408-.98-.503-3.968c1.382-.175 2.786-.303 4.172-.38l.222 3.994c-1.293.071-2.602.191-3.891.354zm11.695-.236c-1.289-.111-2.601-.177-3.899-.197l.061-4c1.393.021 2.8.092 4.183.211z"/><path d="m109.53 103.723-2.856-2.801c.448-.457.888-.918 1.317-1.383l2.938 2.715c-.457.494-.924.984-1.399 1.469z"/></g></svg>